<svg width="74" height="76" fill="none" xmlns="http://www.w3.org/2000/svg"><path d="m10.291 36.806 13.605-22.765h26.98l13.606 22.765-13.606 22.943H23.898L10.29 36.806Z" stroke="#D1B000"/><path d="m43.127 46.588-6.747 3.781-11.079-18.796 6.803-3.812c1.914-1.073 3.784-1.62 5.61-1.643 1.82-.028 3.516.45 5.086 1.435 1.575.981 2.938 2.447 4.089 4.4 1.154 1.957 1.77 3.85 1.85 5.677.087 1.824-.346 3.503-1.296 5.037-.944 1.53-2.383 2.837-4.316 3.92Zm-4.73-1.88 2.556-1.431c1.19-.667 2.067-1.436 2.634-2.307.569-.88.798-1.876.688-2.986-.108-1.12-.575-2.38-1.401-3.782-.819-1.389-1.695-2.407-2.63-3.056-.928-.651-1.92-.958-2.977-.92-1.057.04-2.18.393-3.37 1.06l-2.565 1.437 7.065 11.986Z" fill="gold"/><path d="M50.761 29.588a2.746 2.746 0 0 0 3.778.541 2.59 2.59 0 0 0 .528-3.688 2.746 2.746 0 0 0-3.778-.54 2.59 2.59 0 0 0-.528 3.687Zm12.197-8.913.305.396.212-.155-.011-.26-.506.019Zm-.55-12.526-2.792 2.954 3.042 2.748 2.792-2.954-3.042-2.748Zm-9.19 20.262.004-.002.003-.002.003-.003a.278.278 0 0 0 .003-.002l.004-.003.004-.002a.125.125 0 0 1 .007-.006l.004-.003c.002 0 .003-.002.005-.003l.004-.003.004-.003a.133.133 0 0 0 .01-.007l.004-.004c.002 0 .004-.002.005-.003l.005-.004.005-.004.006-.004c.002 0 .003-.002.005-.004.002 0 .004-.002.006-.004l.006-.004.005-.004.006-.005c.002 0 .004-.002.006-.004l.007-.005.006-.004.006-.005.007-.005.007-.005.006-.005.008-.005.007-.005.007-.005.007-.005a.475.475 0 0 1 .008-.006l.007-.005a.514.514 0 0 1 .023-.017l.008-.006a.583.583 0 0 1 .009-.006l.008-.006.008-.006.009-.007a.641.641 0 0 1 .009-.006l.008-.006.01-.007.008-.006a.717.717 0 0 1 .01-.007l.008-.007.01-.007a.766.766 0 0 1 .01-.006l.009-.008.01-.006.01-.008.009-.007.01-.007.01-.008.01-.007.01-.008.011-.007.01-.008.011-.008.011-.008a.75.75 0 0 0 .033-.024l.011-.008.011-.008a1.146 1.146 0 0 1 .023-.017l.012-.008.012-.009.012-.009a.908.908 0 0 0 .024-.017l.012-.009.012-.009.012-.009a.986.986 0 0 1 .013-.01l.013-.008.012-.01.013-.009.013-.01.013-.009.013-.01.013-.009.013-.01.014-.01.013-.01.014-.01.013-.01.014-.01.014-.01.014-.01.014-.01.014-.01.014-.01.015-.011.014-.01.014-.011.015-.01.015-.012.015-.01.015-.011.014-.011.016-.011.015-.011.015-.011.015-.012.016-.01.015-.012.016-.012a.903.903 0 0 0 .016-.011l.015-.012.016-.011.016-.012.016-.012.017-.011c.005-.005.01-.008.016-.012l.016-.012.016-.012.017-.012.017-.012.016-.013.017-.012.017-.012.017-.012c.005-.005.01-.009.017-.013l.017-.012.017-.013.017-.012.017-.013.018-.013.017-.013.018-.012.017-.013.018-.013.018-.013.018-.013.018-.013.018-.014.018-.013.018-.013.018-.013.018-.014.019-.013.018-.014.019-.013.019-.014.018-.014.019-.013.019-.014.019-.014.019-.014.019-.014.019-.014a2.33 2.33 0 0 0 .019-.014l.02-.014.019-.014.019-.014.02-.014.019-.015.02-.014.02-.014.02-.015.019-.014.02-.015.02-.014.02-.015.02-.015.02-.014.02-.015.02-.015.02-.015.021-.014.02-.015a3.642 3.642 0 0 1 .042-.03l.02-.016.021-.015.02-.015.022-.015.02-.015.021-.016.021-.015.021-.015.022-.016.02-.015.022-.016a2.86 2.86 0 0 0 .021-.015l.022-.016.021-.016.021-.015.022-.016.022-.016.021-.016.022-.015.022-.016.021-.016.022-.016.022-.016.022-.016.022-.016a3.07 3.07 0 0 1 .022-.016l.022-.017.022-.016.023-.016.022-.016.022-.017.022-.016.023-.016.022-.017.023-.016.022-.017.023-.016.023-.017a3.266 3.266 0 0 0 .045-.033l.023-.016.023-.017.022-.017a4.546 4.546 0 0 1 .046-.034l.023-.016.023-.017.023-.017.023-.017c.008-.005.016-.01.023-.017.008-.005.016-.01.024-.017l.023-.017.023-.017.024-.016.023-.018.023-.017.024-.017.023-.017.024-.017.023-.017.024-.018.023-.017.024-.017.024-.017.023-.018.024-.017.024-.017.024-.018.024-.017.024-.018.024-.017.023-.018a3.64 3.64 0 0 1 .024-.017l.025-.018.024-.017a3.676 3.676 0 0 0 .072-.053l.024-.018.024-.018.025-.017.024-.018.024-.018.024-.018a2.176 2.176 0 0 1 .05-.035l.023-.018.025-.018.024-.018.025-.018.024-.018.025-.017.024-.018.025-.018.025-.018.024-.018.025-.018.025-.018.024-.018.025-.018.025-.019.024-.018a3.89 3.89 0 0 0 .025-.018l.025-.018.025-.018.025-.018.024-.018.025-.018.025-.018.025-.019.025-.018.025-.018.025-.018a75642418818.091 75642418818.091 0 0 1 .05-.037l.025-.018a75642418818.091 75642418818.091 0 0 1 .05-.037l.025-.018.025-.018.025-.018.025-.019.025-.018.025-.018.025-.019.025-.018a5.46 5.46 0 0 0 .025-.018l.025-.019.025-.018.026-.019.025-.018.025-.018.025-.019.025-.018.025-.018a4.018 4.018 0 0 1 .076-.056l.025-.018.025-.018.025-.019.026-.018.025-.019.025-.018.025-.019.026-.018.025-.018.025-.019.025-.018.025-.019.026-.018.025-.019.025-.018.025-.018.025-.019.026-.018.025-.019.025-.018.025-.018.026-.019.025-.018.025-.019.025-.018.025-.019.025-.018.026-.018.025-.019a4.018 4.018 0 0 1 .05-.037l.025-.018.025-.018.025-.019.026-.018a5.46 5.46 0 0 0 .025-.018l.025-.019.025-.018.025-.018.025-.019.025-.018.025-.018.025-.018.025-.019.025-.018.025-.018.025-.019.025-.018.025-.018.025-.018.025-.018.025-.019.025-.018.024-.018.025-.018.025-.018.025-.018a3.89 3.89 0 0 1 .05-.037l.024-.018a3.89 3.89 0 0 1 .074-.054l.025-.018.025-.018.024-.018.025-.018.024-.018.025-.018.025-.018a2.196 2.196 0 0 0 .049-.036l.024-.017.024-.018.025-.018.024-.018.025-.018.024-.018.024-.017.025-.018.024-.018.024-.017.024-.018.024-.018.025-.018.024-.017.024-.018.024-.017.024-.018.024-.017.024-.018.024-.017.024-.018.023-.017.024-.018a4.91 4.91 0 0 0 .024-.017l.024-.017.023-.018.024-.017.024-.017.023-.018.024-.017.024-.017.023-.017.023-.017.024-.017.023-.017.024-.018.023-.017.023-.017c.008-.005.016-.01.023-.017l.024-.016a3.384 3.384 0 0 1 .046-.034l.023-.017a4.585 4.585 0 0 1 .046-.034l.023-.016.023-.017.023-.017a3.3 3.3 0 0 1 .022-.017l.023-.016.023-.017.022-.016.023-.017.023-.016.022-.017.023-.016.022-.017.022-.016.023-.016.022-.017.022-.016.022-.016.023-.016.022-.016.022-.016.022-.017.022-.015.021-.017.022-.015.022-.016.022-.016.021-.016.022-.016.022-.016a1.69 1.69 0 0 0 .021-.015l.022-.016a2.9 2.9 0 0 1 .02-.016l.022-.015.022-.016.02-.015.022-.016.021-.015.021-.015.021-.016.021-.015.02-.015.022-.016.02-.015.021-.015.02-.015.021-.015.02-.015.021-.015.02-.015.02-.015.021-.014.02-.015.02-.015.02-.014.02-.015.02-.015.02-.014.02-.015.02-.014.02-.014.019-.015.02-.014.019-.014.02-.014.019-.015.019-.014.02-.014.018-.013a2.3 2.3 0 0 1 .02-.014l.018-.014.02-.014.018-.014.019-.014.018-.013.019-.014.019-.013.018-.014-.61-.793-.018.014-.018.013-.019.014-.019.014a2.22 2.22 0 0 0-.018.013l-.02.014-.018.014-.02.014-.018.014-.02.014a2.33 2.33 0 0 1-.018.014l-.02.014-.019.014-.02.014-.019.014-.02.014-.019.015-.02.014-.02.015c-.006.004-.012.01-.02.014l-.019.014-.02.015-.02.015-.02.014-.02.015-.02.015-.02.014-.02.015-.021.015-.02.015-.021.015-.02.015-.021.015-.02.015-.022.015a2.74 2.74 0 0 1-.041.031l-.021.015-.021.016-.021.015-.021.015-.022.016-.02.015-.022.016-.021.015-.022.016-.021.016-.022.015-.021.016-.022.016-.022.016-.021.016-.022.016-.022.016-.022.016-.022.016-.022.016-.022.016a1.784 1.784 0 0 1-.044.032l-.022.016-.022.017-.023.016-.022.016-.022.017-.023.016-.022.016-.023.017-.022.016-.023.017-.023.016-.022.017-.023.017-.023.016a3.314 3.314 0 0 0-.023.017l-.023.017-.023.016a4.585 4.585 0 0 1-.046.034l-.023.017a3.384 3.384 0 0 0-.046.034l-.023.017-.023.017c-.008.005-.016.01-.023.017a4.706 4.706 0 0 1-.047.034l-.023.017-.024.017a4.785 4.785 0 0 1-.023.017l-.024.017-.023.017-.024.018-.024.017-.023.017-.024.017-.024.018-.023.017a4.91 4.91 0 0 0-.024.017l-.024.018-.024.017a3.625 3.625 0 0 1-.072.053l-.023.017-.024.018-.025.017-.024.018-.024.018-.024.017-.024.018-.024.018-.025.017-.024.018-.024.018-.024.017-.025.018a3.749 3.749 0 0 1-.024.018l-.024.018-.025.018-.024.018a3.786 3.786 0 0 1-.074.053l-.024.018-.025.018-.024.018-.025.018-.025.018-.024.018-.025.018a5.287 5.287 0 0 1-.05.036l-.024.018a3.89 3.89 0 0 0-.025.018l-.025.019-.024.018-.025.018-.025.018-.025.018-.025.018-.025.018-.025.019-.025.018-.024.018-.025.018-.025.018-.025.019-.025.018-.025.018a5.417 5.417 0 0 1-.025.019l-.025.018-.025.018-.025.018a5.46 5.46 0 0 1-.026.019l-.024.018-.026.018-.025.019-.025.018-.025.018-.025.019-.025.018-.025.019-.026.018a4.003 4.003 0 0 0-.025.018l-.025.019a4.018 4.018 0 0 1-.025.018l-.025.019a4.018 4.018 0 0 1-.025.018l-.026.018a4.018 4.018 0 0 1-.025.019l-.025.018-.025.019-.025.018-.026.018-.025.019-.025.018-.025.019-.025.018a4.018 4.018 0 0 1-.026.019l-.025.018-.025.018-.025.019-.025.018a2.335 2.335 0 0 0-.026.019l-.025.018-.025.018-.025.019-.026.018-.025.019-.025.018a4.018 4.018 0 0 1-.025.019l-.025.018-.026.018-.025.019-.025.018a4.018 4.018 0 0 0-.075.055l-.026.019a2.31 2.31 0 0 1-.025.018l-.025.019-.025.018-.025.018-.025.019-.025.018-.025.018a5.46 5.46 0 0 0-.026.019l-.025.018-.025.018-.025.019-.025.018a5.417 5.417 0 0 1-.025.018l-.025.019-.025.018-.025.018a3.943 3.943 0 0 0-.05.037l-.025.018-.025.018-.024.018-.025.018-.025.019-.025.018-.025.018-.025.018-.025.018-.024.018a3.89 3.89 0 0 1-.025.018c-.008.007-.017.012-.025.018a3.89 3.89 0 0 1-.025.019l-.025.018-.024.018-.025.018a3.86 3.86 0 0 1-.024.018l-.025.018-.025.018-.024.018-.025.018-.024.018a2.196 2.196 0 0 1-.025.017l-.025.018a2.196 2.196 0 0 1-.024.018l-.024.018-.025.018-.024.018-.025.018-.024.017-.024.018-.025.018-.024.018-.024.017-.024.018-.024.018a2.124 2.124 0 0 0-.024.017l-.025.018-.024.018-.024.017-.024.018-.024.017-.024.018-.024.017-.024.018a3.625 3.625 0 0 1-.023.017l-.024.018-.024.017-.024.017-.024.018-.023.017-.024.017-.023.018-.024.017a2.023 2.023 0 0 0-.024.017l-.023.017-.024.017-.023.017a2.373 2.373 0 0 0-.023.017l-.024.018-.023.017-.023.017c-.008.005-.016.01-.024.017l-.023.017-.023.017-.023.016-.023.017a94642906572.816 94642906572.816 0 0 1-.046.034l-.023.017a3.314 3.314 0 0 1-.023.016l-.023.017-.023.017a3.266 3.266 0 0 1-.022.016l-.023.017-.023.017a1.875 1.875 0 0 0-.022.016l-.023.017-.023.016-.022.017-.023.016-.022.016-.022.017-.023.016-.022.016-.022.016-.022.017-.022.016-.022.016-.022.016-.022.016-.022.016-.022.016-.022.016-.021.016-.022.015-.022.016-.021.016-.022.016-.021.015-.022.016-.021.016-.021.015-.022.016-.02.015-.022.016-.02.015-.022.015-.02.016-.022.015-.02.015-.021.015-.021.015-.02.016-.021.015-.02.015-.021.015-.02.014-.021.015-.02.015-.02.015-.02.015-.02.014-.02.015-.02.015-.02.014-.02.015a3.363 3.363 0 0 0-.04.028l-.02.015-.019.014-.02.014-.019.014-.02.014-.018.015a2.33 2.33 0 0 1-.02.014l-.019.014-.019.013-.019.014-.019.014-.018.014-.02.014-.018.013-.018.014-.019.013-.019.014-.018.013a2.125 2.125 0 0 1-.018.014l-.019.013-.018.013-.018.014-.018.013a1.174 1.174 0 0 1-.018.013l-.018.013-.017.013a1.357 1.357 0 0 0-.018.013l-.018.013a1.941 1.941 0 0 1-.017.012c-.006.005-.012.01-.018.013l-.017.013a1.905 1.905 0 0 0-.035.025l-.017.013-.017.012-.017.013-.017.012-.017.012a1.776 1.776 0 0 1-.016.012l-.017.013-.017.012a2.331 2.331 0 0 0-.016.012l-.016.012-.017.012-.016.012-.016.011-.016.012-.016.012-.016.011-.016.012a5.85 5.85 0 0 1-.015.011l-.016.012-.016.011-.015.011-.015.012-.016.01-.015.012-.015.01-.015.012-.015.01-.014.011-.015.011-.015.011-.014.01-.015.011-.014.01-.014.011-.014.01a1.25 1.25 0 0 1-.015.01l-.014.01-.013.01-.014.011-.014.01-.013.01-.014.01-.013.01a.647.647 0 0 0-.013.01c-.005.002-.01.006-.014.009a1.07 1.07 0 0 1-.013.01l-.013.009-.013.01-.012.009-.013.009-.012.009a.57.57 0 0 0-.013.01l-.012.008a1.29 1.29 0 0 0-.012.01l-.013.008-.012.009-.012.009-.011.008-.012.009-.012.008-.011.009-.012.008-.011.008-.011.008-.011.009a2.796 2.796 0 0 1-.022.015l-.011.008-.01.008-.011.008-.01.008-.011.007-.01.007-.01.008-.01.007-.01.007-.01.008-.01.007-.01.007-.009.006-.009.007-.01.007a.717.717 0 0 0-.008.007l-.01.006-.008.007-.009.006-.008.006-.009.007-.008.006-.009.006-.008.006-.008.006-.008.005a.193.193 0 0 1-.008.006l-.007.006-.008.005-.007.006-.008.005-.007.005a.32.32 0 0 1-.007.006l-.007.005-.007.005-.006.005-.007.004a.26.26 0 0 1-.006.005l-.007.005-.006.004-.006.005a.312.312 0 0 0-.012.008l-.006.004a.196.196 0 0 1-.005.005c-.002 0-.004.002-.006.004a.244.244 0 0 0-.005.003l-.005.004-.005.004a.208.208 0 0 0-.005.004c-.002 0-.003.002-.005.003l-.005.003a.52.52 0 0 1-.004.004c-.002 0-.003.002-.005.003a.414.414 0 0 1-.004.003l-.004.003-.004.003-.004.003a.119.119 0 0 0-.004.003l-.003.002-.004.003a.072.072 0 0 1-.007.005.062.062 0 0 1-.003.002l-.003.002.61.793Zm10.245-7.754-.425-9.675-1.01.036.425 9.675 1.01-.036ZM36.277 15.999l-2.4 4.992 5.774.019-2.374-5.008-1-.003Zm.457-6.587.5-.009-.004-.232-.18-.147-.316.388Zm-9.976-8.1.424 4.06 4.06-.42-.424-4.06-4.06.42ZM37.276 16.5c.003-2.224-.001-4.89-.042-7.098l-1 .018c.04 2.197.045 4.855.041 7.077l1 .003Zm-.227-7.477-7.734-6.28-.63.776L36.42 9.8l.63-.776ZM24.401 29.768a2.591 2.591 0 0 0-.622-3.674 2.744 2.744 0 0 0-3.762.637 2.591 2.591 0 0 0 .622 3.674 2.744 2.744 0 0 0 3.762-.637Zm-12.418-8.602.294-.404-.207-.143-.242.078.155.469ZM.22 24.95l3.672 1.816 1.886-3.604-3.672-1.816L.221 24.95Zm22.283 2.895a.083.083 0 0 0-.007-.005l-.003-.002-.003-.002-.004-.003-.004-.002a.125.125 0 0 0-.003-.003l-.004-.003c-.002 0-.003-.002-.005-.003l-.004-.003a.118.118 0 0 1-.004-.003c-.002 0-.003-.002-.005-.003a.128.128 0 0 1-.004-.003l-.005-.003a.471.471 0 0 1-.005-.004c-.002 0-.003-.002-.005-.003l-.005-.004a.1.1 0 0 0-.005-.003l-.006-.004-.005-.004-.006-.004a.205.205 0 0 1-.012-.008l-.006-.004-.006-.005-.006-.004a.244.244 0 0 1-.007-.004l-.006-.005-.007-.005-.007-.004-.007-.005-.007-.005-.007-.005-.008-.005-.007-.005-.008-.006a.21.21 0 0 1-.007-.005l-.008-.005-.008-.006-.008-.005-.008-.006a.597.597 0 0 0-.009-.006l-.008-.006a.434.434 0 0 1-.008-.006l-.01-.006a1.515 1.515 0 0 1-.008-.006l-.009-.006-.009-.006-.009-.006-.01-.007-.009-.006a.782.782 0 0 0-.01-.007l-.009-.007-.01-.006-.01-.007a.866.866 0 0 0-.01-.007l-.01-.007-.01-.007a.634.634 0 0 0-.02-.014l-.01-.008-.011-.007a.406.406 0 0 0-.011-.007l-.011-.008-.01-.008-.012-.007-.011-.008-.012-.008-.01-.008c-.005-.002-.009-.005-.012-.008l-.012-.008-.012-.008-.012-.008-.012-.008-.012-.009-.012-.008-.012-.009-.012-.008-.013-.009-.012-.009a.572.572 0 0 0-.013-.008l-.013-.01-.013-.008a1.464 1.464 0 0 0-.013-.01l-.013-.008-.013-.01c-.005-.002-.009-.006-.014-.009l-.013-.009-.013-.01c-.005-.002-.01-.005-.014-.009l-.014-.01-.014-.009-.013-.01c-.005-.002-.01-.006-.014-.009l-.014-.01-.015-.01-.014-.01-.014-.01-.015-.01-.014-.01-.015-.01-.015-.01-.015-.01-.015-.01a1.975 1.975 0 0 0-.015-.011l-.015-.01-.015-.011-.016-.01-.015-.012-.016-.01-.015-.011-.016-.011-.016-.011-.016-.011-.016-.011-.016-.011-.016-.011-.016-.012-.017-.011-.016-.011-.016-.012-.017-.011-.017-.012c-.005-.004-.01-.008-.017-.011l-.016-.012-.017-.012-.017-.012-.018-.012-.017-.011-.017-.012-.017-.012-.018-.013-.017-.012a6.062 6.062 0 0 1-.018-.012l-.018-.012-.018-.013-.017-.012-.018-.012-.018-.013a1.96 1.96 0 0 1-.018-.012l-.019-.013-.018-.013-.018-.012-.019-.013-.018-.013-.019-.013a3.03 3.03 0 0 0-.018-.013l-.02-.013-.018-.013-.019-.013-.019-.013-.019-.013a3.16 3.16 0 0 0-.038-.027l-.02-.013-.019-.013a3.26 3.26 0 0 1-.019-.014l-.02-.013-.019-.014-.02-.013-.02-.014-.02-.014a2.35 2.35 0 0 0-.019-.013l-.02-.014a2.408 2.408 0 0 1-.02-.014l-.02-.014-.02-.014-.02-.014-.02-.014a1.457 1.457 0 0 1-.02-.014l-.021-.014-.02-.014a1.49 1.49 0 0 1-.02-.014l-.021-.015a8.344 8.344 0 0 0-.021-.014l-.02-.014-.022-.015-.02-.014a3.785 3.785 0 0 1-.021-.015l-.021-.014-.021-.015-.021-.014-.021-.015-.022-.015a2.73 2.73 0 0 0-.042-.029l-.022-.015-.021-.015-.022-.015a2.788 2.788 0 0 0-.021-.014l-.022-.015-.021-.015-.022-.016a2.852 2.852 0 0 1-.022-.015l-.022-.015-.022-.015-.022-.015-.022-.015a2.897 2.897 0 0 1-.022-.016l-.022-.015-.022-.015a1.76 1.76 0 0 0-.022-.016l-.023-.015-.022-.016-.022-.015-.023-.016-.022-.015-.023-.016-.023-.016-.022-.015-.023-.016-.023-.016-.022-.016-.023-.015-.023-.016-.023-.016a4.583 4.583 0 0 0-.023-.016l-.023-.016-.023-.016-.023-.016-.024-.016a3.236 3.236 0 0 1-.023-.016l-.023-.016-.023-.017-.024-.016-.023-.016-.023-.016-.024-.016-.023-.017-.024-.016-.024-.016-.023-.017-.024-.016-.024-.017a3.382 3.382 0 0 1-.024-.016l-.023-.017a4.949 4.949 0 0 0-.024-.016l-.024-.017-.024-.016-.024-.017-.024-.017-.024-.016a3.486 3.486 0 0 1-.048-.034l-.024-.016a2.072 2.072 0 0 0-.049-.034l-.024-.017a3.557 3.557 0 0 1-.024-.017l-.025-.016-.024-.017-.024-.017-.025-.017-.024-.017-.025-.017-.024-.017-.025-.017-.024-.017-.025-.017a3.623 3.623 0 0 0-.05-.034l-.024-.017-.025-.017-.025-.018-.024-.017a3.71 3.71 0 0 1-.025-.017l-.025-.017-.025-.017-.025-.018-.025-.017-.025-.017-.025-.017-.025-.018-.025-.017-.025-.017-.025-.018-.025-.017-.025-.018a5.457 5.457 0 0 0-.025-.017l-.025-.017-.025-.018-.026-.017-.025-.018-.025-.017-.025-.018-.025-.017-.026-.018-.025-.017a2.267 2.267 0 0 1-.025-.018l-.026-.017-.025-.018-.026-.017-.025-.018-.025-.018-.026-.017-.025-.018a3.888 3.888 0 0 1-.026-.017l-.025-.018-.026-.018-.025-.017-.025-.018-.026-.018-.026-.017-.025-.018a5.677 5.677 0 0 1-.026-.018l-.025-.017-.026-.018a5.677 5.677 0 0 0-.05-.036c-.01-.005-.018-.011-.026-.017l-.026-.018a2.328 2.328 0 0 1-.026-.018l-.025-.018a5.677 5.677 0 0 0-.026-.017l-.026-.018-.025-.018a3.963 3.963 0 0 0-.026-.017l-.025-.018-.026-.018-.026-.018-.025-.018-.026-.017-.026-.018a3.963 3.963 0 0 0-.025-.018l-.026-.018-.026-.017a3.963 3.963 0 0 1-.051-.036l-.026-.018-.025-.018-.026-.017-.026-.018-.026-.018-.025-.018-.026-.017a3.963 3.963 0 0 0-.026-.018l-.025-.018-.026-.018a3.963 3.963 0 0 1-.026-.018l-.025-.017a3.963 3.963 0 0 0-.026-.018l-.025-.018-.026-.018-.026-.017a5.677 5.677 0 0 1-.051-.036l-.026-.018-.025-.018-.026-.017-.025-.018-.026-.018a5.677 5.677 0 0 0-.026-.017l-.025-.018-.026-.018-.025-.017-.026-.018-.025-.018-.026-.018-.025-.017a110037322827.709 110037322827.709 0 0 1-.051-.036l-.026-.017-.025-.018-.026-.017-.025-.018-.026-.018-.025-.017-.025-.018-.026-.017-.025-.018-.025-.017-.026-.018-.025-.018a2.267 2.267 0 0 1-.025-.017l-.026-.018-.025-.017-.025-.017a5.5 5.5 0 0 1-.025-.018l-.025-.017-.025-.018-.026-.017-.025-.018a2.227 2.227 0 0 0-.025-.017l-.025-.017-.025-.018-.025-.017a3.747 3.747 0 0 0-.05-.035l-.025-.017-.025-.017-.025-.017-.025-.018-.024-.017-.025-.017-.025-.017-.025-.018-.025-.017-.024-.017a5.285 5.285 0 0 1-.025-.017l-.025-.017-.024-.017-.025-.017-.025-.017a11.786 11.786 0 0 0-.024-.017l-.025-.017-.024-.017-.025-.017-.024-.017-.024-.017-.025-.017c-.008-.005-.016-.01-.024-.017l-.024-.016-.025-.017-.024-.017-.024-.017a3.486 3.486 0 0 1-.024-.016l-.024-.017-.024-.017-.024-.016-.024-.017-.024-.017-.024-.016-.024-.017a11.311 11.311 0 0 0-.024-.016l-.024-.017a3.367 3.367 0 0 1-.024-.016l-.023-.017a3.367 3.367 0 0 1-.024-.016l-.024-.016-.023-.017-.024-.016-.023-.016-.024-.017-.023-.016-.024-.016-.023-.016-.023-.016-.024-.017-.023-.016-.023-.016-.023-.016-.023-.016-.023-.016a4.583 4.583 0 0 1-.023-.015l-.023-.016a3.12 3.12 0 0 0-.023-.016l-.023-.016-.023-.016-.022-.016-.023-.015-.023-.016a4.425 4.425 0 0 1-.022-.016l-.023-.015-.022-.016a3.022 3.022 0 0 0-.045-.03l-.022-.016-.023-.016-.022-.015a1.737 1.737 0 0 0-.044-.03l-.022-.016-.022-.015-.022-.015-.022-.016-.022-.015-.021-.015a4.08 4.08 0 0 1-.022-.015l-.022-.015-.021-.015a2.788 2.788 0 0 0-.043-.03l-.022-.015a2.73 2.73 0 0 1-.043-.03l-.02-.014-.022-.014a2.669 2.669 0 0 0-.021-.015l-.021-.015-.021-.014-.021-.015-.021-.014-.02-.015-.022-.014-.02-.014-.02-.015c-.008-.004-.015-.01-.021-.014l-.02-.014a8.205 8.205 0 0 0-.021-.014l-.02-.014-.021-.014-.02-.014-.02-.014-.02-.014-.02-.014-.02-.014a3.43 3.43 0 0 1-.04-.027l-.02-.014-.02-.014-.02-.013-.019-.014-.02-.013-.018-.014-.02-.013-.019-.013a3.16 3.16 0 0 1-.02-.014l-.018-.013-.02-.013-.018-.013-.019-.013-.019-.013-.589.808.02.013.018.013.019.013.019.013.02.014a3.16 3.16 0 0 0 .037.026l.02.014a2.24 2.24 0 0 0 .039.027l.02.013.019.014.02.013c.006.005.012.01.02.014l.019.014.02.013.02.014a1.42 1.42 0 0 1 .04.028l.02.014.02.014.02.014.02.014.021.014.02.014.021.015.02.014.022.014.02.015a3.748 3.748 0 0 1 .042.029l.02.014.022.015.021.014.021.015.021.014.022.015.02.015.022.015.022.015.021.014.022.015.021.015.022.015.022.015.021.015.022.016.022.015.022.015.022.015.022.015.022.016.022.015.023.015.022.016.022.015.023.016.022.015.023.016.022.016.023.015.022.016.023.016.023.015.023.016.022.016.023.016.023.016.023.016.023.016.023.016.023.016.024.016.023.016.023.016.023.016.024.016.023.016.024.017.023.016.023.016.024.017.024.016a3.367 3.367 0 0 0 .047.033l.024.016a3.367 3.367 0 0 1 .047.033l.024.017.024.016a4.949 4.949 0 0 0 .048.033l.024.017.024.017.024.016.024.017.024.017.024.016.025.017.024.017.024.017.024.017c.009.005.017.01.025.017l.024.016.025.017.024.017.024.017.025.017.025.017.024.017.025.017.024.017.025.017.025.018c.008.005.016.01.024.017l.025.017.025.017.025.017.025.017.025.017.024.018.025.017.025.017.025.018a2.214 2.214 0 0 0 .075.052l.025.017a3.747 3.747 0 0 1 .1.07c.01.005.018.011.026.017l.025.017.025.018.026.017.025.018.025.017.025.018.025.017.026.018.025.017.026.018.025.018.025.017.026.018.025.017.025.018.026.017a12.61 12.61 0 0 1 .05.036l.026.017.026.018.025.018.026.017.025.018.026.018.025.018.026.017.026.018.025.018.026.017.025.018.026.018.026.017.025.018.026.018.026.018.025.018.026.017.025.018.026.018.026.018.025.017.026.018a5.723 5.723 0 0 1 .077.054l.026.017a3.963 3.963 0 0 1 .077.054l.025.017.026.018.026.018.026.018.025.018.026.017.026.018.025.018.026.018.026.018.025.017.026.018.025.018.026.018.026.017.025.018.026.018.026.017a3.963 3.963 0 0 1 .102.071l.026.018.025.018a64954925436.568 64954925436.568 0 0 0 .051.035l.026.018.025.018.026.017.025.018.026.018.025.017.026.018.025.018.026.017.025.018.025.017.026.018.025.017.025.018.026.018.025.017.025.018a12.44 12.44 0 0 1 .05.035c.01.005.018.011.026.017a106894107956.959 106894107956.959 0 0 0 .05.035l.026.017.025.018.025.017a5.457 5.457 0 0 1 .075.053l.026.017.024.017.026.018.024.017.026.017.024.018.025.017.025.017.025.017.025.017.025.018a5.329 5.329 0 0 1 .05.034l.024.017.025.017.024.017.025.017a3.623 3.623 0 0 0 .074.051l.024.017.025.017.024.017.025.017.024.017.024.017.025.017.024.017a1.307 1.307 0 0 0 .073.05l.024.017.024.016.024.017.024.017.024.016.024.017.024.017.024.016.024.017.024.016.023.017.024.016a3.367 3.367 0 0 1 .048.033l.023.016.024.017.023.016.024.016.023.016.023.017.024.016.023.016.023.016.024.016.023.016.023.016.023.016.023.016.023.016.023.016.023.016.023.016.023.015.022.016.023.016.023.016.022.015.023.016.022.015.023.016.022.015.023.016.022.015.022.016.022.015.022.015.022.016.022.015a2.883 2.883 0 0 1 .044.03l.022.016.022.015.022.015.021.015.022.015.022.015.021.015.021.014.022.015.021.015.021.015.022.014.02.015.022.015.02.014.022.015.02.014.022.015.02.014.021.014.02.015c.008.004.014.01.021.014l.02.014.021.014.02.014.02.014a2.45 2.45 0 0 0 .041.028l.02.014.02.014.02.014.02.014.02.014.02.013.02.014.02.014.019.013.02.014a1.332 1.332 0 0 0 .038.026l.02.014.018.013.02.013.018.013.02.014.018.013.02.013.018.013.019.012c.006.005.012.01.018.013l.019.013.018.013a2.013 2.013 0 0 0 .037.025l.018.013.018.012.018.013.018.012.018.013.018.012.017.012.018.012.017.013.018.012.017.012.018.012.017.012.017.012.017.011.017.012.017.012a.99.99 0 0 1 .016.011l.017.012.017.012.016.01c.006.005.011.009.017.012l.016.012.016.01.017.012.015.011.017.011.015.011.016.011a1.492 1.492 0 0 0 .032.022l.015.01.016.011.015.011.015.01.015.011.015.01c.005.004.01.008.015.01l.015.011.015.01.015.01.014.01.015.01.014.01.014.01.015.01.014.01.014.01.014.01.014.01.013.009.014.01.013.008.014.01.013.009.013.01a.61.61 0 0 1 .04.026l.012.009a3.153 3.153 0 0 0 .025.017l.013.01.012.008a.536.536 0 0 1 .012.008l.013.009a.863.863 0 0 0 .012.008l.012.008.011.008.012.008.012.009.011.008.012.008.011.007a.747.747 0 0 0 .022.016l.011.007.011.008.01.007.011.008.011.007.01.007.01.007.01.007.01.007a.866.866 0 0 1 .01.007l.01.007.01.007a.557.557 0 0 0 .01.006l.01.007.009.006.01.007a.733.733 0 0 1 .008.006l.01.006.008.007.009.006.009.006a.434.434 0 0 0 .008.006l.009.005.008.006a.582.582 0 0 1 .008.006l.008.006a.222.222 0 0 1 .016.01l.008.006.007.005.008.005.007.005.007.005.007.005.007.005a.281.281 0 0 0 .007.005l.007.004.006.005.007.004.006.005.006.004a.322.322 0 0 1 .006.004l.006.004.006.004.006.004.005.004.006.004.005.003.005.004.005.004a3863634839.609 3863634839.609 0 0 0 .01.007l.005.002a.12.12 0 0 0 .004.004c.002 0 .003.002.005.003l.004.003.004.002.004.003.004.003.003.002.004.003.003.002.004.003.003.002.003.002.589-.808Zm-10.676-7.15-8.983 2.892.31.938 8.982-2.89-.309-.94ZM20.25 48.31l5.497-1.002-3.476-4.616-2.623 4.82.602.799Zm-5.242 3.004-.286-.41-.18.12-.034.212.5.078ZM13.01 64.145l3.324-2.365-2.446-3.273-3.324 2.366 2.446 3.272Zm7.046-16.926a192.36 192.36 0 0 1-5.334 3.685l.571.82c1.872-1.238 3.78-2.576 5.363-3.704l-.6-.8Zm-5.548 4.017L12.95 61.248l1 .157 1.558-10.012-.999-.157ZM36.992 52.356a2.666 2.666 0 1 0 .015 5.332 2.666 2.666 0 0 0-.015-5.332Zm.047 15.107-.5.001v.254l.206.15.294-.405Zm9.974 7.232-.643-4.032-4.032.642.643 4.032 4.032-.642ZM36.5 55.025v.015a.06.06 0 0 1 0 .004V55.327l.001.01V55.575a.59.59 0 0 0 0 .013v.055l.001.014V55.964l.001.017v.05a.98.98 0 0 1 0 .035V56.282l.001.019v.019a1.197 1.197 0 0 1 0 .038V56.416a1.274 1.274 0 0 1 0 .04v.139l.001.021V56.892a1.606 1.606 0 0 1 .001.044v.295l.001.024v.311l.001.024V57.84a2.142 2.142 0 0 0 .001.051v.077a2.236 2.236 0 0 0 0 .052v.078a2.27 2.27 0 0 0 0 .052v.053l.001.026v.027a2.34 2.34 0 0 0 0 .053v.107a2.43 2.43 0 0 0 0 .054v.027a2.457 2.457 0 0 1 .001.055v.248a2.576 2.576 0 0 0 .001.056V59.166l.001.029V59.28a2.765 2.765 0 0 0 0 .086V59.483l.001.03v.088a2.871 2.871 0 0 0 0 .087v.059a2.891 2.891 0 0 1 .001.089v.149a2.96 2.96 0 0 0 0 .119l.001.03v.03a3.03 3.03 0 0 1 0 .12v.151l.001.03v.031a3.09 3.09 0 0 0 0 .122 3.121 3.121 0 0 0 0 .06v.092a3.121 3.121 0 0 1 .001.123v.185l.001.031v.186a3.203 3.203 0 0 0 .001.124 3.214 3.214 0 0 0 0 .062v.062a3.224 3.224 0 0 1 0 .124 3.214 3.214 0 0 1 .001.125 3.245 3.245 0 0 1 0 .125v.125l.001.03v.251a3.266 3.266 0 0 0 .001.124 3.245 3.245 0 0 0 0 .063v.094a3.245 3.245 0 0 0 .001.093v.063a3.245 3.245 0 0 1 0 .124 3.224 3.224 0 0 1 0 .125 3.214 3.214 0 0 1 .001.062v.248l.001.03v.062a3.183 3.183 0 0 0 0 .093v.031a3.152 3.152 0 0 0 .001.123v.123a3.142 3.142 0 0 1 0 .123v.06l.001.031v.121a3.07 3.07 0 0 0 0 .061v.091l.001.03v.03a3.02 3.02 0 0 1 0 .12 3 3 0 0 1 0 .03v.12a2.97 2.97 0 0 0 .001.119v.06a2.9 2.9 0 0 1 0 .117v.03l.001.029v.029a2.842 2.842 0 0 0 0 .117v.029a2.813 2.813 0 0 1 0 .058v.057l.001.03v.028a2.736 2.736 0 0 0 0 .086v.171a2.65 2.65 0 0 0 .001.056v.028a2.632 2.632 0 0 1 0 .056v.084a2.558 2.558 0 0 0 0 .055v.028a2.54 2.54 0 0 1 .001.055v.055a2.493 2.493 0 0 0 0 .055v.027a2.457 2.457 0 0 1 0 .054v.108l.001.027v.132a2.323 2.323 0 0 1 0 .053v.026a2.27 2.27 0 0 0 0 .053v.025l.001.026v.154a2.142 2.142 0 0 0 0 .051V66.841l.001.026v.024a2.058 2.058 0 0 1 0 .05V67.16l.001.024V67.464l1-.003V66.913l-.001-.025V66.584l-.001-.026V66.27l-.001-.026V65.945l-.001-.028V65.611l-.001-.028V65.298l-.001-.029V64.98l-.001-.03V64.655l-.001-.03v-.269l-.001-.03V64.023l-.001-.03v-.276l-.001-.03V63.377l-.001-.031v-.279l-.001-.031v-.28l-.001-.032V62.414l-.001-.032v-.281l-.001-.031v-.281l-.001-.031V61.447l-.001-.031v-.279l-.001-.031v-.277l-.001-.03V60.493l-.001-.031v-.272l-.001-.03V59.862l-.001-.03V59.54l-.001-.03V59.22l-.001-.028V58.909l-.001-.029V58.576l-.001-.027V58.253l-.001-.027V57.94l-.001-.025V57.612l-.001-.025V57.3l-.001-.024v-.297l-.001-.023v-.3l-.001-.02v-.3l-.001-.018v-.306l-.001-.017V55.682l-.001-.014V55.366l-.001-.01V55.04l-.001-.004v-.016l-1 .003Zm.245 12.843 7.637 5.537.587-.81-7.637-5.537-.587.81ZM55.649 47.44l-3.226-4.448-2.846 5.024 5.579.294.493-.87Zm6.304 3.962-.246.435.22.12.232-.105-.206-.45Zm11.237-5.066-3.849-1.399-1.468 3.796 3.849 1.399 1.468-3.796Zm-18.475 1.736.014.008.013.007.014.007.014.008.013.007.014.007.014.008.014.007.014.008.013.007.014.008.014.007a13172470982.338 13172470982.338 0 0 0 .027.015l.014.007.014.008.014.007.014.008.014.007.014.008.014.007.013.008.014.007.014.008.014.007.014.008.014.007.014.008.014.007.014.008a1.78 1.78 0 0 1 .028.015l.014.007.014.008.014.007.014.008.014.007.014.008a.624.624 0 0 1 .028.015l.014.008.014.007.014.008.015.008.014.007.014.008.014.007.014.008.014.008.014.007.014.008.015.007.014.008.014.008.014.007.014.008.015.008.014.007.014.008.014.008.015.007.014.008.014.008.014.007.015.008.014.008.014.007.014.008.015.008.014.007.014.008.015.008.014.008.014.007.015.008.014.008.014.008.015.007.014.008.014.008.015.007.014.008.015.008.014.008.014.007.015.008a1.008 1.008 0 0 1 .029.016l.014.007a26417645422.618 26417645422.618 0 0 0 .043.024l.015.008.014.007.015.008.014.008.015.008.014.008.015.007.014.008.014.008.015.008.014.007.015.008.014.008.015.008.014.008.015.008.014.007.015.008.014.008.015.008.015.008.014.007.015.008.014.008.015.008.014.008.015.008a1.938 1.938 0 0 1 .029.015l.014.008.015.008.015.008.014.008a1.938 1.938 0 0 1 .03.015l.014.008.015.008.014.008.015.008.014.008.015.008a.678.678 0 0 1 .03.015l.014.008.014.008.015.008.015.008.014.008.015.007.014.008.015.008.015.008.014.008.015.008.014.008.015.008.015.007.014.008.015.008.015.008.014.008.015.008.015.008.014.008.015.008.014.007.015.008.015.008.014.008.015.008a1.054 1.054 0 0 1 .044.023l.015.008.014.008.015.008.015.008a1.054 1.054 0 0 1 .029.016l.014.008a.678.678 0 0 0 .03.015l.014.008.015.008a1.054 1.054 0 0 1 .059.032l.014.008.015.008.014.008.015.007.015.008.014.008.015.008.015.008.014.008.015.008.015.008.014.007.015.008.015.008.014.008.015.008.014.008a1.938 1.938 0 0 1 .03.016l.014.007.015.008.014.008.015.008.015.008.014.008.015.008a1.938 1.938 0 0 1 .044.023l.014.008a1.044 1.044 0 0 1 .03.016l.014.008.014.007.015.008.015.008.014.008.015.008.014.008.015.008.014.007.015.008.015.008.014.008a.67.67 0 0 0 .015.008l.014.008.015.007.014.008.015.008.014.008.015.008.014.007.015.008.014.008.015.008.014.008.015.008.014.007a1.907 1.907 0 0 0 .044.024l.014.008.015.007.014.008.015.008.014.008.015.007.014.008.014.008.015.008.014.008.015.007.014.008.015.008.014.008.014.007.015.008.014.008.014.008.015.007.014.008.015.008.014.008.014.007.015.008.014.008.014.007a1.847 1.847 0 0 1 .029.016l.014.008a2.164 2.164 0 0 1 .043.023l.014.007.015.008a.65.65 0 0 0 .014.008l.014.007.015.008.014.008.014.007.014.008.014.008.015.007.014.008.014.008.014.007.014.008.015.008.014.007.014.008.014.007.014.008.014.008.014.007.015.008.014.007.014.008.014.008.014.007.014.008.014.007.014.008.014.008a13552545303.32 13552545303.32 0 0 0 .042.022l.014.008.014.007.014.008a1.78 1.78 0 0 1 .042.022l.014.008.014.007.014.008.014.007.014.008.014.007.014.008.014.007a13172470982.338 13172470982.338 0 0 0 .069.038l.014.007.014.007.013.008.014.007.014.008.014.007.014.008.013.007.014.007.014.008.013.007.014.008.014.007.014.007.013.008.014.007.014.007.013.008.014.007.013.007.014.008.014.007.013.007.014.008.013.007.014.007a.893.893 0 0 1 .027.015l.013.007.014.007.013.008a.893.893 0 0 0 .014.007l.013.007a.572.572 0 0 0 .014.007l.013.008.014.007a.572.572 0 0 0 .013.007l.013.007.014.008.013.007.013.007.014.007.013.007.013.007.014.008a.859.859 0 0 1 .026.014l.014.007.013.007a.85.85 0 0 0 .04.022l.013.007a.85.85 0 0 1 .026.014l.013.007.013.007.013.007.013.007.014.007.013.007a.834.834 0 0 0 .013.007l.013.007.013.007.013.007.013.007.013.007.013.007.013.007.013.007.012.007.013.007.013.007.013.007.013.007.013.007.013.007a1.485 1.485 0 0 0 .038.02l.013.007.013.007.012.007a.511.511 0 0 1 .013.007l.013.007.012.007.013.006.013.007.013.007a.777.777 0 0 0 .012.007l.013.007.012.006a.777.777 0 0 1 .013.007l.012.007.013.007.013.006.012.007a.76.76 0 0 1 .013.007l.012.006.012.007.013.007.012.007.013.006a1.4 1.4 0 0 0 .012.007l.012.007.013.006.012.007.012.006.013.007a.745.745 0 0 1 .012.007l.012.006.012.007.013.007.012.006.012.007.012.006.013.007a.714.714 0 0 1 .048.026l.012.006.012.007.012.006.012.007.012.006.012.007.012.006.012.007.012.006.012.006a.691.691 0 0 0 .012.007l.011.006.012.007.012.006.012.006.012.007a.676.676 0 0 1 .011.006l.012.006.012.007.011.006.012.006.012.006.011.007.012.006.012.006.011.006a.646.646 0 0 0 .012.006l.011.007.012.006.011.006.012.006.011.007.012.006.011.006.011.006.012.006a.406.406 0 0 0 .011.006l.011.006.012.006.011.006a.625.625 0 0 1 .011.007l.011.006.012.006.01.006.012.006.011.006.011.006.011.006a1.271 1.271 0 0 0 .034.017l.01.006.012.006.01.006.012.006.01.006.011.006.011.006.011.006.011.005a.569.569 0 0 0 .01.006l.012.006a.569.569 0 0 1 .01.006l.011.006a.364.364 0 0 0 .01.005l.012.006.492-.87-.01-.006a.569.569 0 0 0-.011-.005l-.01-.006-.012-.006-.01-.006a.569.569 0 0 0-.011-.006l-.011-.006-.01-.005-.012-.006-.01-.006-.012-.006-.01-.006-.011-.006a.384.384 0 0 1-.023-.012l-.01-.006-.012-.006-.01-.006-.012-.006-.011-.006-.011-.006-.011-.006-.012-.006-.01-.006a.625.625 0 0 0-.012-.006l-.011-.006-.011-.006a.625.625 0 0 0-.012-.006l-.011-.006-.012-.006a.406.406 0 0 0-.01-.006l-.012-.006-.012-.007-.011-.006-.011-.006-.012-.006-.011-.006-.012-.006-.011-.007-.012-.006-.012-.006-.011-.006-.012-.007a.426.426 0 0 1-.011-.006l-.012-.006-.012-.006-.011-.007-.012-.006-.012-.006a1.266 1.266 0 0 0-.012-.007l-.011-.006-.012-.006-.012-.007-.012-.006-.012-.006a.691.691 0 0 0-.035-.02l-.012-.006-.012-.007-.012-.006-.012-.006-.012-.007-.012-.006-.012-.007-.012-.006-.012-.007a.714.714 0 0 0-.025-.013l-.012-.006-.012-.007-.012-.007a.47.47 0 0 0-.012-.006l-.013-.007-.012-.006a1.348 1.348 0 0 1-.012-.007l-.012-.006-.013-.007-.012-.007-.012-.006-.012-.007-.013-.007-.012-.006-.012-.007a.489.489 0 0 1-.025-.013l-.013-.007-.012-.007-.013-.006-.012-.007-.013-.007-.012-.007-.013-.006-.012-.007a.777.777 0 0 1-.013-.007l-.012-.007-.013-.006a.777.777 0 0 0-.013-.007l-.012-.007-.013-.007-.013-.007-.012-.007-.013-.006-.013-.007-.013-.007-.012-.007a1.485 1.485 0 0 0-.013-.007l-.013-.007a1.485 1.485 0 0 1-.013-.007l-.013-.007a1.485 1.485 0 0 0-.012-.006l-.013-.007-.013-.007-.013-.007-.013-.007-.013-.007-.013-.007-.013-.007-.013-.007-.012-.007a1.54 1.54 0 0 0-.027-.014l-.013-.007-.012-.007-.014-.007-.013-.007-.013-.007-.013-.007-.013-.007-.013-.007-.013-.007-.013-.007-.013-.008-.014-.007a.85.85 0 0 1-.013-.007l-.013-.007-.013-.007-.013-.007-.014-.007a.85.85 0 0 1-.013-.007l-.013-.007-.014-.008-.013-.007a.859.859 0 0 1-.013-.007l-.013-.007-.014-.007-.013-.008-.014-.007a1.63 1.63 0 0 0-.013-.007l-.013-.007-.014-.007-.013-.008-.014-.007-.013-.007-.013-.007-.014-.008-.013-.007-.014-.007-.013-.007a.587.587 0 0 1-.014-.008l-.013-.007-.014-.007a.587.587 0 0 1-.014-.008l-.013-.007a.893.893 0 0 1-.027-.014l-.014-.008-.013-.007-.014-.007-.014-.008-.013-.007-.014-.007-.014-.008-.013-.007-.014-.008a.596.596 0 0 0-.014-.007l-.014-.007-.013-.008-.014-.007-.014-.008-.014-.007-.013-.007-.014-.008-.014-.007-.014-.008-.013-.007a.611.611 0 0 1-.028-.015l-.014-.007-.014-.008a.936.936 0 0 0-.014-.007l-.014-.008-.013-.007a1.751 1.751 0 0 1-.028-.015l-.014-.008-.014-.007-.014-.008-.014-.007-.014-.008-.014-.007-.014-.008-.014-.007-.014-.008-.014-.008a1.78 1.78 0 0 0-.028-.014l-.014-.008-.014-.008-.014-.007-.014-.008-.014-.007a.972.972 0 0 1-.042-.023l-.014-.008a.972.972 0 0 0-.015-.007l-.014-.008-.014-.008-.014-.007a.972.972 0 0 1-.028-.015l-.015-.008a.972.972 0 0 0-.014-.008l-.014-.007-.014-.008-.014-.008-.014-.007-.015-.008-.014-.008-.014-.007-.014-.008-.014-.008-.015-.007-.014-.008-.014-.007a.99.99 0 0 0-.014-.008l-.015-.008-.014-.008-.014-.007-.015-.008-.014-.008-.014-.007-.015-.008-.014-.008a2.164 2.164 0 0 0-.029-.015l-.014-.008-.014-.008-.015-.007-.014-.008a.65.65 0 0 1-.014-.008l-.015-.008-.014-.007-.015-.008-.014-.008-.014-.008-.015-.007a1.008 1.008 0 0 0-.014-.008l-.014-.008-.015-.008-.014-.007a1.907 1.907 0 0 0-.015-.008l-.014-.008-.015-.008a1.017 1.017 0 0 1-.029-.015l-.014-.008-.014-.008a1.907 1.907 0 0 1-.015-.008l-.014-.008a1.907 1.907 0 0 0-.015-.007l-.014-.008-.015-.008a1.907 1.907 0 0 1-.014-.008l-.015-.008-.014-.007-.015-.008-.014-.008-.015-.008-.014-.008-.015-.007a.67.67 0 0 0-.014-.008l-.015-.008a1.907 1.907 0 0 1-.014-.008l-.015-.008-.014-.008-.015-.007-.015-.008a1.044 1.044 0 0 0-.014-.008l-.015-.008a1.044 1.044 0 0 1-.014-.008l-.015-.008-.014-.007a.678.678 0 0 0-.015-.008l-.014-.008-.015-.008-.015-.008-.014-.008-.015-.007-.014-.008a1.938 1.938 0 0 1-.044-.024l-.015-.008-.014-.008-.015-.007a1.044 1.044 0 0 0-.03-.016l-.014-.008a1.044 1.044 0 0 0-.014-.008l-.015-.008a1.938 1.938 0 0 1-.03-.016l-.014-.007a1.044 1.044 0 0 1-.014-.008l-.015-.008-.015-.008-.014-.008-.015-.008-.015-.008-.014-.008-.015-.007a1.044 1.044 0 0 1-.014-.008l-.015-.008-.015-.008a1.044 1.044 0 0 0-.014-.008l-.015-.008-.015-.008a1.044 1.044 0 0 1-.014-.008l-.015-.007a.678.678 0 0 0-.015-.008l-.014-.008-.015-.008-.014-.008-.015-.008a1.044 1.044 0 0 1-.015-.008l-.015-.008a.678.678 0 0 0-.014-.008l-.015-.007-.014-.008-.015-.008a1.054 1.054 0 0 1-.015-.008l-.014-.008-.015-.008-.015-.008-.014-.008-.015-.008-.015-.007-.014-.008-.015-.008-.014-.008-.015-.008-.015-.008-.014-.008a1.044 1.044 0 0 1-.015-.008l-.015-.007-.014-.008a1.044 1.044 0 0 0-.015-.008l-.015-.008-.014-.008-.015-.008-.014-.008-.015-.008-.015-.008a1.044 1.044 0 0 1-.029-.015l-.015-.008-.014-.008-.015-.008a1.044 1.044 0 0 0-.014-.008l-.015-.008a.678.678 0 0 1-.015-.008l-.014-.007-.015-.008-.014-.008-.015-.008-.015-.008a1.938 1.938 0 0 0-.029-.015l-.014-.008-.015-.008-.015-.008a1.938 1.938 0 0 1-.014-.008l-.015-.008-.014-.008a1.044 1.044 0 0 0-.015-.008l-.015-.007-.014-.008-.015-.008-.014-.008-.015-.008-.014-.008-.015-.007-.014-.008-.015-.008-.015-.008-.014-.008-.015-.008a1.044 1.044 0 0 0-.014-.007l-.015-.008-.014-.008-.015-.008a1.044 1.044 0 0 1-.043-.023l-.015-.008a1.907 1.907 0 0 0-.029-.016l-.014-.008-.015-.007a1.907 1.907 0 0 1-.029-.016l-.014-.008-.015-.008-.014-.007a1.907 1.907 0 0 0-.015-.008l-.014-.008a1.907 1.907 0 0 0-.014-.008l-.015-.007-.014-.008-.015-.008-.014-.008-.015-.008-.014-.007-.014-.008a1.008 1.008 0 0 0-.015-.008l-.014-.007-.015-.008-.014-.008a1.008 1.008 0 0 0-.014-.008l-.015-.008-.014-.007-.014-.008a.65.65 0 0 1-.015-.008l-.014-.007a2.164 2.164 0 0 0-.014-.008l-.015-.008-.014-.008a.65.65 0 0 1-.014-.007l-.015-.008-.014-.008-.014-.007-.015-.008-.014-.008-.014-.008-.015-.007-.014-.008-.014-.008-.014-.007-.015-.008-.014-.008a.99.99 0 0 0-.014-.007l-.014-.008-.014-.008-.015-.007-.014-.008-.014-.008-.014-.007-.015-.008-.014-.007-.014-.008-.014-.008-.014-.007-.014-.008-.014-.008-.014-.007-.015-.008-.014-.007-.014-.008-.014-.007-.014-.008-.014-.008a.962.962 0 0 1-.014-.007l-.014-.008a.962.962 0 0 0-.042-.022l-.014-.008-.014-.008-.014-.007-.014-.008a1.78 1.78 0 0 0-.014-.007l-.014-.008-.014-.007-.014-.008-.014-.007-.014-.008-.014-.007a1.751 1.751 0 0 1-.014-.008l-.014-.007-.014-.008-.014-.007-.013-.008-.014-.007-.014-.008a.927.927 0 0 1-.014-.007l-.014-.007-.014-.008a.927.927 0 0 0-.013-.007l-.014-.008-.014-.007-.014-.008-.014-.007-.013-.007a.927.927 0 0 0-.028-.015l-.013-.008-.014-.007a.596.596 0 0 1-.014-.007l-.014-.008-.013-.007-.493.87Zm7.444 3.78 8.579-3.868-.413-.9-8.578 3.868.412.9Z" fill="#FFDE2E"/></svg>