<svg width="38" height="36" fill="none" xmlns="http://www.w3.org/2000/svg"><path d="M18.84.001A18.652 18.652 0 0 0 0 18.447 18.48 18.48 0 0 0 12.88 35.97c.942.171 1.284-.394 1.284-.89v-3.135c-5.24 1.113-6.354-2.467-6.354-2.467a4.899 4.899 0 0 0-2.09-2.706c-1.712-1.13.138-1.113.138-1.113a3.957 3.957 0 0 1 2.877 1.901 4.06 4.06 0 0 0 5.48 1.524 3.99 3.99 0 0 1 1.2-2.466c-4.18-.462-8.564-2.038-8.564-9.112a7.108 7.108 0 0 1 1.901-4.984 6.474 6.474 0 0 1 .189-4.864s1.592-.497 5.138 1.884a18.292 18.292 0 0 1 9.42 0c3.597-2.38 5.138-1.884 5.138-1.884.693 1.535.76 3.28.189 4.864a7.108 7.108 0 0 1 2.003 4.95c0 7.09-4.418 8.65-8.563 9.112a4.283 4.283 0 0 1 1.284 3.425v5.053s.343 1.079 1.285.89A18.498 18.498 0 0 0 37.68 18.448 18.652 18.652 0 0 0 18.84.001Z" fill="#D1B000"/></svg>