<svg width="36" height="36" fill="none" xmlns="http://www.w3.org/2000/svg"><path d="M17.979 0c2.494 0 4.831.473 7.01 1.42 2.18.946 4.086 2.229 5.72 3.849 1.635 1.62 2.925 3.52 3.872 5.699.946 2.179 1.419 4.516 1.419 7.01 0 2.495-.473 4.832-1.42 7.011a18.33 18.33 0 0 1-3.87 5.72 18.33 18.33 0 0 1-5.72 3.872C22.81 35.527 20.472 36 17.978 36c-2.495 0-4.832-.473-7.011-1.42-2.18-.946-4.08-2.236-5.7-3.87-1.62-1.635-2.902-3.541-3.849-5.72C.473 22.81 0 20.472 0 17.978c0-2.495.473-4.832 1.42-7.011.946-2.18 2.229-4.08 3.849-5.7s3.52-2.902 5.699-3.849C13.147.473 15.484 0 17.978 0Zm-5.592 13.505H7.871V28.13h4.516V13.505Zm-2.28-1.16c.631 0 1.169-.216 1.613-.646.445-.43.667-.96.667-1.591s-.222-1.162-.667-1.592a2.234 2.234 0 0 0-1.613-.645c-.63 0-1.16.215-1.59.645-.431.43-.646.96-.646 1.591s.215 1.162.645 1.592c.43.43.96.645 1.591.645Zm18.022 7.31c0-1.031-.287-2.042-.86-3.031-.574-.99-1.32-1.742-2.237-2.258-.831-.46-1.799-.703-2.903-.732-1.104-.028-2.115.158-3.032.56v-.689h-4.473V28.13h4.473v-8.946l1.892-.903c.23-.115.538-.172.925-.172s.695.071.925.215c.172.086.344.272.516.559.172.287.258.544.258.774v8.473h4.516v-8.473Z" fill="#D1B000"/></svg>